<svg xmlns="http://www.w3.org/2000/svg" viewBox="0 0 48 48" fill="none" role="img" aria-labelledby="logo-title">
  <title id="logo-title">Schedules</title>
  <defs>
    <linearGradient id="bg" x1="4" y1="4" x2="44" y2="44" gradientUnits="userSpaceOnUse">
      <stop stop-color="#7c3aed"/>
      <stop offset=".5" stop-color="#4f46e5"/>
      <stop offset="1" stop-color="#2563eb"/>
    </linearGradient>
    <linearGradient id="accent" x1="18" y1="28" x2="34" y2="38" gradientUnits="userSpaceOnUse">
      <stop stop-color="#7c3aed"/>
      <stop offset="1" stop-color="#2563eb"/>
    </linearGradient>
  </defs>
  <rect width="48" height="48" rx="12" fill="url(#bg)"/>
  <rect x="11" y="14" width="26" height="24" rx="4" fill="#fff"/>
  <path fill="#e5e7eb" d="M11 20h26v2H11z"/>
  <rect x="17" y="11" width="3" height="7" rx="1.5" fill="#fff"/>
  <rect x="28" y="11" width="3" height="7" rx="1.5" fill="#fff"/>
  <rect x="15" y="25" width="7" height="3" rx="1.5" fill="url(#accent)" opacity=".85"/>
  <rect x="15" y="30" width="11" height="3" rx="1.5" fill="#e5e7eb"/>
  <rect x="28" y="25" width="7" height="3" rx="1.5" fill="#e5e7eb"/>
  <rect x="28" y="30" width="7" height="3" rx="1.5" fill="url(#accent)" opacity=".85"/>
  <circle cx="36" cy="16" r="5" fill="#fff"/>
  <path fill="url(#accent)" d="M34.2 16l1.2 1.2 2.6-2.6 1 1-3.6 3.6-2.2-2.2z"/>
</svg>
